<svg width="183" height="37" viewBox="0 0 183 37" fill="none" xmlns="http://www.w3.org/2000/svg">
<g filter="url(#filter0_d_0_1)">
<path d="M50.382 9.852V21.084C50.382 22.3147 50.7027 23.2593 51.344 23.918C51.9853 24.5593 52.8867 24.88 54.048 24.88C55.2267 24.88 56.1367 24.5593 56.778 23.918C57.4193 23.2593 57.74 22.3147 57.74 21.084V9.852H61.406V21.058C61.406 22.6007 61.068 23.9093 60.392 24.984C59.7333 26.0413 58.8407 26.8387 57.714 27.376C56.6047 27.9133 55.3653 28.182 53.996 28.182C52.644 28.182 51.4133 27.9133 50.304 27.376C49.212 26.8387 48.3453 26.0413 47.704 24.984C47.0627 23.9093 46.742 22.6007 46.742 21.058V9.852H50.382ZM64.2989 18.9C64.2989 17.1147 64.6976 15.52 65.4949 14.116C66.3096 12.6947 67.4102 11.594 68.7969 10.814C70.2009 10.0167 71.7696 9.618 73.5029 9.618C75.5309 9.618 77.3076 10.138 78.8329 11.178C80.3582 12.218 81.4242 13.6567 82.0309 15.494H77.8449C77.4289 14.6273 76.8396 13.9773 76.0769 13.544C75.3316 13.1107 74.4649 12.894 73.4769 12.894C72.4196 12.894 71.4749 13.1453 70.6429 13.648C69.8282 14.1333 69.1869 14.8267 68.7189 15.728C68.2682 16.6293 68.0429 17.6867 68.0429 18.9C68.0429 20.096 68.2682 21.1533 68.7189 22.072C69.1869 22.9733 69.8282 23.6753 70.6429 24.178C71.4749 24.6633 72.4196 24.906 73.4769 24.906C74.4649 24.906 75.3316 24.6893 76.0769 24.256C76.8396 23.8053 77.4289 23.1467 77.8449 22.28H82.0309C81.4242 24.1347 80.3582 25.582 78.8329 26.622C77.3249 27.6447 75.5482 28.156 73.5029 28.156C71.7696 28.156 70.2009 27.766 68.7969 26.986C67.4102 26.1887 66.3096 25.088 65.4949 23.684C64.6976 22.28 64.2989 20.6853 64.2989 18.9ZM109.658 9.852L104.588 28H100.298L96.8919 15.078L93.3299 28L89.0659 28.026L84.1779 9.852H88.0779L91.2759 23.944L94.9679 9.852H99.0239L102.508 23.866L105.732 9.852H109.658ZM120.719 28.182C119.02 28.182 117.46 27.7833 116.039 26.986C114.617 26.1887 113.491 25.088 112.659 23.684C111.827 22.2627 111.411 20.6593 111.411 18.874C111.411 17.106 111.827 15.52 112.659 14.116C113.491 12.6947 114.617 11.5853 116.039 10.788C117.46 9.99067 119.02 9.592 120.719 9.592C122.435 9.592 123.995 9.99067 125.399 10.788C126.82 11.5853 127.938 12.6947 128.753 14.116C129.585 15.52 130.001 17.106 130.001 18.874C130.001 20.6593 129.585 22.2627 128.753 23.684C127.938 25.088 126.82 26.1887 125.399 26.986C123.977 27.7833 122.417 28.182 120.719 28.182ZM120.719 24.932C121.811 24.932 122.773 24.6893 123.605 24.204C124.437 23.7013 125.087 22.9907 125.555 22.072C126.023 21.1533 126.257 20.0873 126.257 18.874C126.257 17.6607 126.023 16.6033 125.555 15.702C125.087 14.7833 124.437 14.0813 123.605 13.596C122.773 13.1107 121.811 12.868 120.719 12.868C119.627 12.868 118.656 13.1107 117.807 13.596C116.975 14.0813 116.325 14.7833 115.857 15.702C115.389 16.6033 115.155 17.6607 115.155 18.874C115.155 20.0873 115.389 21.1533 115.857 22.072C116.325 22.9907 116.975 23.7013 117.807 24.204C118.656 24.6893 119.627 24.932 120.719 24.932ZM142.329 28L138.325 20.928H136.609V28H132.969V9.852H139.781C141.185 9.852 142.381 10.1033 143.369 10.606C144.357 11.0913 145.093 11.7587 145.579 12.608C146.081 13.44 146.333 14.376 146.333 15.416C146.333 16.612 145.986 17.6953 145.293 18.666C144.599 19.6193 143.568 20.278 142.199 20.642L146.541 28H142.329ZM136.609 18.198H139.651C140.639 18.198 141.375 17.964 141.861 17.496C142.346 17.0107 142.589 16.3433 142.589 15.494C142.589 14.662 142.346 14.0207 141.861 13.57C141.375 13.102 140.639 12.868 139.651 12.868H136.609V18.198ZM160.129 28L153.525 19.914V28H149.885V9.852H153.525V17.99L160.129 9.852H164.523L157.035 18.848L164.731 28H160.129ZM172.897 28.234C171.719 28.234 170.661 28.026 169.725 27.61C168.789 27.1767 168.044 26.596 167.489 25.868C166.952 25.14 166.657 24.334 166.605 23.45H170.271C170.341 24.0047 170.609 24.464 171.077 24.828C171.563 25.192 172.161 25.374 172.871 25.374C173.565 25.374 174.102 25.2353 174.483 24.958C174.882 24.6807 175.081 24.3253 175.081 23.892C175.081 23.424 174.839 23.0773 174.353 22.852C173.885 22.6093 173.131 22.3493 172.091 22.072C171.017 21.812 170.133 21.5433 169.439 21.266C168.763 20.9887 168.174 20.564 167.671 19.992C167.186 19.42 166.943 18.6487 166.943 17.678C166.943 16.8807 167.169 16.1527 167.619 15.494C168.087 14.8353 168.746 14.3153 169.595 13.934C170.462 13.5527 171.476 13.362 172.637 13.362C174.353 13.362 175.723 13.7953 176.745 14.662C177.768 15.5113 178.331 16.664 178.435 18.12H174.951C174.899 17.548 174.657 17.0973 174.223 16.768C173.807 16.4213 173.244 16.248 172.533 16.248C171.875 16.248 171.363 16.3693 170.999 16.612C170.653 16.8547 170.479 17.1927 170.479 17.626C170.479 18.1113 170.722 18.484 171.207 18.744C171.693 18.9867 172.447 19.238 173.469 19.498C174.509 19.758 175.367 20.0267 176.043 20.304C176.719 20.5813 177.3 21.0147 177.785 21.604C178.288 22.176 178.548 22.9387 178.565 23.892C178.565 24.724 178.331 25.4693 177.863 26.128C177.413 26.7867 176.754 27.3067 175.887 27.688C175.038 28.052 174.041 28.234 172.897 28.234Z" fill="black"/>
</g>
<path d="M18.5003 34.8876C17.4674 34.8876 16.419 34.6564 15.602 34.1784L7.12284 29.2914C3.66951 26.9634 3.45367 26.6089 3.45367 22.9551V14.0443C3.45367 10.3905 3.65409 10.0359 7.04576 7.73887L15.5865 2.80553C17.2053 1.86512 19.749 1.86512 21.3678 2.80553L29.8778 7.70803C33.3311 10.0359 33.547 10.3905 33.547 14.0443V22.9397C33.547 26.5934 33.3465 26.948 29.9549 29.2451L21.414 34.1784C20.5815 34.6564 19.5332 34.8876 18.5003 34.8876ZM18.5003 4.42428C17.8528 4.42428 17.2207 4.54762 16.7736 4.8097L8.29451 9.7122C5.78159 11.408 5.78159 11.408 5.78159 14.0443V22.9397C5.78159 25.5759 5.78159 25.5759 8.35617 27.318L16.7736 32.1743C17.6832 32.6984 19.3328 32.6984 20.2424 32.1743L28.7215 27.2718C31.219 25.5759 31.219 25.5759 31.219 22.9397V14.0443C31.219 11.408 31.219 11.408 28.6445 9.66595L20.227 4.8097C19.7799 4.54762 19.1478 4.42428 18.5003 4.42428Z" fill="black"/>
<path d="M18.5 24.2812C15.3088 24.2812 12.7188 21.6912 12.7188 18.5C12.7188 15.3088 15.3088 12.7188 18.5 12.7188C21.6912 12.7188 24.2812 15.3088 24.2812 18.5C24.2812 21.6912 21.6912 24.2812 18.5 24.2812ZM18.5 15.0312C16.5883 15.0312 15.0312 16.5883 15.0312 18.5C15.0312 20.4117 16.5883 21.9688 18.5 21.9688C20.4117 21.9688 21.9688 20.4117 21.9688 18.5C21.9688 16.5883 20.4117 15.0312 18.5 15.0312Z" fill="black"/>
<defs>
<filter id="filter0_d_0_1" x="42.742" y="9.59198" width="139.823" height="26.642" filterUnits="userSpaceOnUse" color-interpolation-filters="sRGB">
<feFlood flood-opacity="0" result="BackgroundImageFix"/>
<feColorMatrix in="SourceAlpha" type="matrix" values="0 0 0 0 0 0 0 0 0 0 0 0 0 0 0 0 0 0 127 0" result="hardAlpha"/>
<feOffset dy="4"/>
<feGaussianBlur stdDeviation="2"/>
<feComposite in2="hardAlpha" operator="out"/>
<feColorMatrix type="matrix" values="0 0 0 0 0 0 0 0 0 0 0 0 0 0 0 0 0 0 0.25 0"/>
<feBlend mode="normal" in2="BackgroundImageFix" result="effect1_dropShadow_0_1"/>
<feBlend mode="normal" in="SourceGraphic" in2="effect1_dropShadow_0_1" result="shape"/>
</filter>
</defs>
</svg>
